<svg width="1716" height="212" viewBox="0 0 1716 212" fill="none" xmlns="http://www.w3.org/2000/svg">
<path d="M148.98 19.7617C151.5 15.6602 154.811 12.4668 158.912 10.1816C163.014 7.83789 167.438 6.66602 172.184 6.66602H195.035V124H191.871C184.488 124 178.395 122.887 173.59 120.66C168.785 118.434 165.182 115.475 162.779 111.783C160.436 108.033 159.264 103.902 159.264 99.3906V50.084L111.627 124H83.2383L35.7773 50.084V101.324C35.7773 105.484 34.6641 109.293 32.4375 112.75C30.2695 116.148 26.9297 118.873 22.418 120.924C17.9062 122.975 12.1348 124 5.10352 124H0.09375V6.66602H22.8574C27.6035 6.66602 32.0273 7.83789 36.1289 10.1816C40.2891 12.4668 43.6289 15.6895 46.1484 19.8496L97.4766 96.9297L148.98 19.7617ZM256.436 26.9688H221.455C223.154 21.0508 226.934 16.1875 232.793 12.3789C238.652 8.57031 246.064 6.66602 255.029 6.66602H354.521C363.486 6.66602 370.898 8.57031 376.758 12.3789C382.617 16.1875 386.367 21.0508 388.008 26.9688H353.115H256.436ZM353.115 55.1816H388.799V97.6328C388.799 102.496 387.393 106.92 384.58 110.904C381.768 114.889 377.783 118.082 372.627 120.484C367.529 122.828 361.494 124 354.521 124H255.029C248.057 124 241.992 122.828 236.836 120.484C231.68 118.082 227.695 114.889 224.883 110.904C222.07 106.92 220.664 102.496 220.664 97.6328V55.1816H256.436V103.697H353.115V55.1816ZM444.311 26.9688H409.33C411.029 21.0508 414.809 16.1875 420.668 12.3789C426.527 8.57031 433.939 6.66602 442.904 6.66602H542.396C551.361 6.66602 558.773 8.57031 564.633 12.3789C570.492 16.1875 574.242 21.0508 575.883 26.9688H540.99H444.311ZM540.99 55.1816H576.674V97.6328C576.674 102.496 575.268 106.92 572.455 110.904C569.643 114.889 565.658 118.082 560.502 120.484C555.404 122.828 549.369 124 542.396 124H442.904C435.932 124 429.867 122.828 424.711 120.484C419.555 118.082 415.57 114.889 412.758 110.904C409.945 106.92 408.539 102.496 408.539 97.6328V55.1816H444.311V103.697H540.99V55.1816ZM732.381 29.4297C732.381 25.2695 733.465 21.4609 735.633 18.0039C737.859 14.5469 741.229 11.793 745.74 9.74219C750.311 7.69141 756.111 6.66602 763.143 6.66602H768.064V124H752.156C739.383 124 727.781 119.723 717.352 111.168L635.613 38.7461V124H599.93V6.66602H616.014C628.67 6.66602 640.213 10.8848 650.643 19.3223L732.381 91.041V29.4297ZM829.113 26.9688H794.221C795.92 21.0508 799.67 16.1875 805.471 12.3789C811.33 8.57031 818.742 6.66602 827.707 6.66602H868.664H885.451H927.375C934.289 6.66602 940.354 7.7207 945.568 9.83008C950.842 11.8809 954.943 14.4883 957.873 17.6523C960.803 20.7578 962.268 23.8633 962.268 26.9688H885.451H872.004H868.664H829.113ZM868.664 103.697H885.451H962.268C962.268 106.803 960.803 109.908 957.873 113.014C954.943 116.119 950.842 118.727 945.568 120.836C940.354 122.945 934.289 124 927.375 124H885.451H868.664H827.707C820.734 124 814.67 122.828 809.514 120.484C804.416 118.082 800.461 114.889 797.648 110.904C794.836 106.92 793.43 102.496 793.43 97.6328V55.1816H829.113V103.697H868.664ZM1112 6.66602H1147.68V124H1145.92C1136.9 124 1129.93 122.828 1125.01 120.484C1120.08 118.141 1116.69 115.006 1114.81 111.08C1112.94 107.154 1112 102.818 1112 98.0723V75.4844H1015.32V124H979.547V6.66602H1015.32V55.1816H1112V6.66602ZM1715.68 207.408C1705.49 208.287 1691.1 209.107 1672.53 209.869C1653.96 210.631 1632.45 210.602 1608.02 209.781C1583.58 209.02 1557.48 206.734 1529.71 202.926C1501.99 199.176 1473.84 193.17 1445.24 184.908C1416.65 176.705 1388.91 165.572 1362.01 151.51C1335.12 137.447 1310.33 119.723 1287.66 98.3359H1174.89L1192.47 79.5273H1269.64C1255.87 63.9414 1243.62 46.4219 1232.9 26.9688L1254.17 0.689453C1258.39 6.37305 1262.72 12.3496 1267.18 18.6191C1275.73 30.9238 1285.49 43.9316 1296.45 57.6426C1307.46 71.3535 1320.67 85.0938 1336.08 98.8633C1351.49 112.633 1370.1 125.787 1391.89 138.326C1413.69 150.865 1439.65 162.145 1469.77 172.164C1499.94 182.242 1535.27 190.357 1575.76 196.51C1616.25 202.721 1662.89 206.354 1715.68 207.408ZM1429.12 124H1427.28C1418.26 124 1411.28 122.828 1406.36 120.484C1401.5 118.141 1398.13 115.006 1396.25 111.08C1394.38 107.154 1393.44 102.818 1393.44 98.0723V6.66602H1429.12V124ZM1590.54 29.4297C1590.54 25.2695 1591.63 21.4609 1593.8 18.0039C1596.02 14.5469 1599.39 11.793 1603.9 9.74219C1608.47 7.69141 1614.28 6.66602 1621.31 6.66602H1626.23V124H1610.32C1597.55 124 1585.95 119.723 1575.52 111.168L1493.78 38.7461V124H1458.09V6.66602H1474.18C1486.83 6.66602 1498.38 10.8848 1508.81 19.3223L1590.54 91.041V29.4297Z" fill="#0E0E0E"/>
</svg>
